<svg version="1.1" xmlns="http://www.w3.org/2000/svg" xmlns:xlink="http://www.w3.org/1999/xlink" x="0px" y="0px" viewBox="0 0 70 100" style="enable-background:new 0 0 423 100;" xml:space="preserve">
<style type="text/css">
	.st0{fill:#C7438E;}
	.st1{fill:#4880C0;}
	.st2{fill-rule:evenodd;clip-rule:evenodd;fill:#C7438E;}
	.st3{fill-rule:evenodd;clip-rule:evenodd;fill:#4880C0;}
	.st4{fill:none;stroke:#0173AF;stroke-width:0.5;stroke-miterlimit:10;}
	.st5{fill:#FFFFFF;}
	.st6{fill-rule:evenodd;clip-rule:evenodd;fill:#FFFFFF;}
</style>
<g id="Ebene_2">
	<g>
		<path class="st2" d="M58.8,16.1c0,0,4.5-6.4,1.9-8.3c-2.6-1.9-6.9,4.1-6.9,4.1s-3.3-7.4-6-6.4c-2.6,1-1.2,7.9-1.2,7.9    S37.9,7.7,21.4,12C5,16.3,0.7,32.3,1.6,41.8c1,9.5,11.7,18.6,15,19.8L6.2,67.8c0,0,5,6.4,12.2,4.1c0,0,0.3,7.4,7.9,10L26,88.3    l-3.3,3.3h3l1.7-1.9l1.6,1.8h2.4l-2.1-3l0.2-5.8c0,0,2.3,0.7,4.3,0.1v5.3l-1.7,3.3l2.5,0.1l1.2-2.2l2,2.2h2.6l-3.5-3.9v-5.7    c0,0,6.4-1.4,6.4-10.5c0,0,7.6,6.7,12.4-4.8l-11-3.8c0,0,17.4-5.7,19.1-22.6c1.2-12.2-5.2-17.6-5.2-17.6s6.9,1,7.4-2.1    C66.2,17.5,58.8,16.1,58.8,16.1 M37.9,76.7c-3.4,3.4-9.7,3-12.8-0.1c-3.1-3.1-1.2-12.3-1.2-12.3s2.1,1.1,6.6,1.1    c4.7,0,8.7-1.3,8.7-1.3S41.2,73.3,37.9,76.7 M36.3,49.3c-5.7,0-10.4-4.4-10.9-10c-1.6,1-3.5,1.5-5.6,1.5c-6.1,0-11-4.9-11-11    c0-6.1,4.9-11,11-11c5.7,0,10.4,4.4,10.9,10c1.6-1,3.5-1.5,5.6-1.5c6.1,0,11,4.9,11,11C47.3,44.4,42.4,49.3,36.3,49.3"/>
		<path class="st3" d="M22,27.1c-2.6,0-4.7,2.1-4.7,4.7c0,2.6,2.1,4.7,4.7,4.7c2.6,0,4.7-2.1,4.7-4.7C26.7,29.2,24.6,27.1,22,27.1     M23,32.3c-1.2,0-2.1-0.9-2.1-2.1c0-1.2,0.9-2.1,2.1-2.1c1.2,0,2.1,0.9,2.1,2.1C25.1,31.3,24.2,32.3,23,32.3"/>
		<path class="st4" d="M22,27.1c-2.6,0-4.7,2.1-4.7,4.7c0,2.6,2.1,4.7,4.7,4.7c2.6,0,4.7-2.1,4.7-4.7C26.7,29.2,24.6,27.1,22,27.1z     M23,32.3c-1.2,0-2.1-0.9-2.1-2.1c0-1.2,0.9-2.1,2.1-2.1c1.2,0,2.1,0.9,2.1,2.1C25.1,31.3,24.2,32.3,23,32.3z"/>
		<path class="st3" d="M36.9,34.4c-2.6,0-4.7,2.1-4.7,4.7c0,2.6,2.1,4.7,4.7,4.7c2.6,0,4.7-2.1,4.7-4.7    C41.6,36.5,39.5,34.4,36.9,34.4 M37.9,39.5c-1.2,0-2.1-0.9-2.1-2.1c0-1.2,0.9-2.1,2.1-2.1c1.2,0,2.1,0.9,2.1,2.1    C40,38.6,39.1,39.5,37.9,39.5"/>
		<path class="st4" d="M36.9,34.4c-2.6,0-4.7,2.1-4.7,4.7c0,2.6,2.1,4.7,4.7,4.7c2.6,0,4.7-2.1,4.7-4.7    C41.6,36.5,39.5,34.4,36.9,34.4z M37.9,39.5c-1.2,0-2.1-0.9-2.1-2.1c0-1.2,0.9-2.1,2.1-2.1c1.2,0,2.1,0.9,2.1,2.1    C40,38.6,39.1,39.5,37.9,39.5z"/>
	</g>
</g>
<g id="Augen">
	<ellipse class="st5" cx="19.8" cy="29.9" rx="10.9" ry="11">
		<animate id="twinkle" attributeName="fill" from="#C7438E" to="#FFF" begin="5;twinkle.end+15s" dur="0.2s"/>
	</ellipse>
	<ellipse class="st5" cx="36.3" cy="38.3" rx="10.9" ry="11">
		<animate id="twinkle2" attributeName="fill" from="#C7438E" to="#FFF" begin="5;twinkle2.end+15s" dur="0.2s"/>
	</ellipse>
	<g>
		<path class="st3" d="M21.9,27c-2.6,0-4.7,2.1-4.7,4.7c0,2.6,2.1,4.7,4.7,4.7c2.6,0,4.7-2.1,4.7-4.7C26.7,29.2,24.6,27,21.9,27     M23,32.2c-1.2,0-2.1-0.9-2.1-2.1c0-1.2,0.9-2.1,2.1-2.1c1.2,0,2.1,0.9,2.1,2.1C25.1,31.3,24.1,32.2,23,32.2">
			 <animate id="twinkle3" attributeName="fill" from="#C7438E" to="#FFF" begin="5;twinkle3.end+15s" dur="0.2s"/>
		</path>
		<path class="st4" d="M21.9,27c-2.6,0-4.7,2.1-4.7,4.7c0,2.6,2.1,4.7,4.7,4.7c2.6,0,4.7-2.1,4.7-4.7C26.7,29.2,24.6,27,21.9,27z     M23,32.2c-1.2,0-2.1-0.9-2.1-2.1c0-1.2,0.9-2.1,2.1-2.1c1.2,0,2.1,0.9,2.1,2.1C25.1,31.3,24.1,32.2,23,32.2z">
		<animate id="twinkle4" attributeName="stroke" from="#0173AF" to="#FFF" begin="5;twinkle4.end+15s" dur="0.2s"/>	
		</path>
		<path class="st3" d="M36.8,34.3c-2.6,0-4.7,2.1-4.7,4.7c0,2.6,2.1,4.7,4.7,4.7c2.6,0,4.7-2.1,4.7-4.7    C41.6,36.4,39.4,34.3,36.8,34.3 M37.9,39.4c-1.2,0-2.1-0.9-2.1-2.1c0-1.2,0.9-2.1,2.1-2.1c1.2,0,2.1,0.9,2.1,2.1    C40,38.5,39,39.4,37.9,39.4">
		<animate id="twinkle5" attributeName="fill" from="#C7438E" to="#FFF" begin="5;twinkle5.end+15s" dur="0.2s"/>	
		</path>
		<path class="st4" d="M36.8,34.3c-2.6,0-4.7,2.1-4.7,4.7c0,2.6,2.1,4.7,4.7,4.7c2.6,0,4.7-2.1,4.7-4.7    C41.6,36.4,39.4,34.3,36.8,34.3z M37.9,39.4c-1.2,0-2.1-0.9-2.1-2.1c0-1.2,0.9-2.1,2.1-2.1c1.2,0,2.1,0.9,2.1,2.1    C40,38.5,39,39.4,37.9,39.4z">
		<animate id="twinkle6" attributeName="stroke" from="#0173AF" to="#FFF" begin="5;twinkle6.end+15s" dur="0.2s"/>	
		</path>
	</g>
</g>
<g id="Schnuller">
	<g>
		<path class="st3" d="M31.4,49.3c0,6-4.2,10.8-9.5,10.8c-5.2,0-9.5-4.8-9.5-10.8s4.2-10.8,9.5-10.8C27.2,38.5,31.4,43.3,31.4,49.3"/>
		<ellipse class="st4" cx="22" cy="49.3" rx="9.5" ry="10.8"/>
		<path class="st6" d="M29.3,49.6c0,5.3-3.7,9.6-8.3,9.6c-4.6,0-8.3-4.3-8.3-9.6c0-5.3,3.7-9.6,8.3-9.6C25.6,40,29.3,44.3,29.3,49.6    "/>
		<path class="st3" d="M27.6,49.5c0,4.7-3.4,8.6-7.5,8.6c-4.2,0-7.5-3.8-7.5-8.6s3.4-8.6,7.5-8.6C24.2,40.9,27.6,44.8,27.6,49.5"/>
		<ellipse class="st4" cx="20" cy="49.5" rx="7.5" ry="8.6"/>
		<path class="st6" d="M20.2,46.6c-0.5,0.9-6.6-0.5-7.4,2.6c-0.8,3.1,2,5.3,4,5c2-0.3,4.9-3,5.5-3.2c0.6-0.1,2.3,1.3,1.4,2.8    c-0.9,1.4-4.4,4.2-8.7,4c-4.4-0.2-6.9-5.6-6.3-8.6c0.7-3.1,4-4.4,6.8-4.8C18.3,44,21.7,44,20.2,46.6"/>
		<animateTransform id="m1" attributeName="transform" type="rotate" from="0 50 100" to="-2 50 100" begin="10;m6.end+10s" dur="0.5s"/>
		<animateTransform id="m2" attributeName="transform" type="rotate" from="-2 50 100" to="0 50 100" begin="m1.end" dur="0.2s"/>
		<animateTransform id="m3" attributeName="transform" type="rotate" from="0 50 100" to="-2 50 100" begin="m2.end" dur="0.5s"/>
		<animateTransform id="m4" attributeName="transform" type="rotate" from="-2 50 100" to="0 50 100" begin="m3.end" dur="0.2s"/>
		<animateTransform id="m5" attributeName="transform" type="rotate" from="0 50 100" to="-2 50 100" begin="m4.end" dur="0.5s"/>
		<animateTransform id="m6" attributeName="transform" type="rotate" from="-2 50 100" to="0 50 100" begin="m5.end" dur="0.2s"/>
	</g>
</g>
</svg>